# xmcd CD database file
#
# Track frame offsets:
#	150
#	34189
#	66266
#	92623
#	121186
#	152323
#	190002
#	229622
#	261327
#	294591
#
# Disc length: 4417 seconds
#
# Revision: 0
# Processed by: cddbd v1.5.2PL0 Copyright (c) Steve Scherf et al.
# Submitted via: CDex 1.51
#
DISCID=7e113f0a
DTITLE=Derrick Gardner and the Jazz Prophets and 2 - Echoes of Ethnicity
DYEAR=2009
DGENRE=Jazz
TTITLE0=4Newk
TTITLE1=Afros and Cubans
TTITLE2=We Jazz Tune
TTITLE3=Natural Woman
TTITLE4=Mercury Blvd.
TTITLE5=The Melting Pot
TTITLE6=Autumn in New York
TTITLE7=Crystal Stair
TTITLE8=The Blackamoor
TTITLE9=Miss'ippi Man
EXTD=YEAR: 2009
EXTT0=
EXTT1=
EXTT2=
EXTT3=
EXTT4=
EXTT5=
EXTT6=
EXTT7=
EXTT8=
EXTT9=
PLAYORDER=
